<svg xmlns="http://www.w3.org/2000/svg" viewBox="0 0 64 64" fill="none">
  <defs>
    <linearGradient id="g" x1="8" y1="8" x2="56" y2="56" gradientUnits="userSpaceOnUse">
      <stop offset="0" stop-color="#fb923c"/>
      <stop offset="1" stop-color="#f97316"/>
    </linearGradient>
  </defs>
  <rect x="4" y="4" width="56" height="56" rx="16" fill="#050507"/>
  <rect x="5" y="5" width="54" height="54" rx="15" stroke="url(#g)" stroke-opacity=".55"/>
  <circle cx="32" cy="16" r="4" fill="url(#g)"/>
  <circle cx="32" cy="48" r="4" fill="url(#g)"/>
  <circle cx="16" cy="24" r="4" fill="url(#g)"/>
  <circle cx="16" cy="40" r="4" fill="url(#g)"/>
  <circle cx="48" cy="24" r="4" fill="url(#g)"/>
  <circle cx="48" cy="40" r="4" fill="url(#g)"/>
  <circle cx="32" cy="32" r="5" fill="url(#g)"/>
  <path d="M32 16L16 24M32 16L48 24M16 24V40M48 24V40M16 40L32 48M48 40L32 48M16 24L32 32M48 24L32 32M32 48V32" stroke="url(#g)" stroke-width="3" stroke-linecap="round"/>
</svg>
